<svg xmlns="http://www.w3.org/2000/svg" style="display:none" >
  <symbol id="icon-html" viewBox="0 0 120 120">
    <path d="M22.1325 102.004L13.7062 7.5H106.294L97.8562 101.989L59.9437 112.5L22.1325 102.004Z" fill="#E44F26"/>
    <path d="M60 104.468L90.6375 95.9738L97.845 15.2288H60V104.468Z" fill="#F1662A"/>
    <path d="M60 50.2762H44.6625L43.605 38.4075H60V26.8162H30.9375L31.215 29.9287L34.0613 61.8675H60V50.2762ZM60 80.3775L59.9475 80.3925L47.04 76.9087L46.215 67.665H34.5787L36.2025 85.86L59.9475 92.4525L60 92.4375V80.3775Z" fill="#EBEBEB"/>
    <path d="M59.9587 50.2762V61.8675H74.2312L72.8887 76.9012L59.9587 80.3887V92.4487L83.7225 85.86L83.895 83.9025L86.6175 53.3887L86.9025 50.2762H59.9587ZM59.9587 26.8162V38.4075H87.9562L88.1887 35.805L88.7175 29.9287L88.995 26.8162H59.9587Z" fill="white"/>
  </symbol>
  <symbol id="icon-js" viewBox="0 0 120 120">
    <path d="M7.5 7.5H112.5V112.5H7.5V7.5Z" fill="#F5DE19"/>
    <path d="M78.0337 89.5312C78.9284 91.3485 80.3183 92.8759 82.0434 93.9375C83.7684 94.9991 85.7583 95.5515 87.7837 95.5313C91.8712 95.5313 94.485 93.4875 94.485 90.6562C94.485 87.2812 91.8 86.0738 87.3 84.105L84.8325 83.0475C77.7075 80.0138 72.9825 76.215 72.9825 68.1825C72.9825 60.7838 78.6075 55.1475 87.4312 55.1475C90.2876 54.9412 93.1415 55.5805 95.637 56.9856C98.1324 58.3907 100.159 60.4994 101.464 63.0488L93.75 67.98C93.2476 66.716 92.3728 65.6345 91.2416 64.879C90.1104 64.1236 88.7763 63.7298 87.4162 63.75C86.8228 63.6906 86.2236 63.7555 85.6566 63.9404C85.0897 64.1254 84.5675 64.4265 84.1233 64.8244C83.6792 65.2224 83.3228 65.7085 83.0768 66.2518C82.8309 66.7951 82.7009 67.3837 82.695 67.98C82.695 70.9388 84.5287 72.1388 88.7625 73.98L91.23 75.0375C99.615 78.6338 104.355 82.2975 104.355 90.5363C104.355 99.42 97.3762 104.287 88.005 104.287C84.3536 104.52 80.713 103.691 77.5223 101.901C74.3317 100.11 71.7274 97.4342 70.0237 94.1963L78.0337 89.5312ZM43.1775 90.3863C44.7262 93.135 46.1362 95.46 49.5262 95.46C52.7662 95.46 54.8137 94.1925 54.8137 89.2612V55.71H64.68V89.3925C64.68 99.6075 58.68 104.257 49.9462 104.257C46.8591 104.426 43.7931 103.657 41.1513 102.051C38.5096 100.444 36.4157 98.0761 35.145 95.2575L43.1775 90.3863Z" fill="black"/>
  </symbol>
  <symbol id="icon-vue" viewBox="0 0 120 110">
    <g clip-path="url(#clip0_1118_275)">
      <path d="M96 0H120L60 109.9L0 0H23.7H45.9L60 25.4842L73.8 0H96Z" fill="#41B883"/>
      <path d="M0 0L60 109.9L120 0H96L60 65.9403L23.7 0H0Z" fill="#41B883"/>
      <path d="M23.7 0L60 66.2588L96 0H73.8L60 25.4842L45.9 0H23.7Z" fill="#35495E"/>
    </g>
    <defs>
      <clipPath id="clip0_1118_275">
        <rect width="120" height="110" fill="white"/>
      </clipPath>
    </defs>
  </symbol>
  <symbol id="icon-vite" viewBox="0 0 120 120">
    <path d="M112.063 23.0475L62.7817 111.171C61.764 112.99 59.1502 113.001 58.1171 111.191L7.8585 23.0557C6.7335 21.0825 8.42025 18.6926 10.656 19.092L59.991 27.9105C60.3057 27.9668 60.6279 27.9663 60.9424 27.909L109.245 19.1047C111.474 18.6986 113.169 21.0705 112.063 23.0475Z" fill="url(#paint0_linear_1118_286)"/>
    <path d="M83.4915 7.52589L47.0216 14.6719C46.7302 14.7289 46.4659 14.8812 46.2705 15.1048C46.0751 15.3284 45.9595 15.6107 45.942 15.9071L43.6988 53.7964C43.6463 54.6889 44.4656 55.3815 45.3364 55.1805L55.4903 52.8375C56.4405 52.6181 57.2989 53.4551 57.1035 54.4103L54.087 69.1826C53.8837 70.1764 54.8171 71.0269 55.788 70.7321L62.0595 68.8264C63.0319 68.5313 63.966 69.384 63.7605 70.3789L58.9665 93.5828C58.6665 95.034 60.597 95.8253 61.4021 94.581L61.9399 93.75L91.6575 34.443C92.1551 33.45 91.2975 32.3179 90.2063 32.5283L79.755 34.5454C78.7725 34.7348 77.937 33.8201 78.2141 32.859L85.0358 9.21152C85.3133 8.24852 84.4748 7.33314 83.4915 7.52589Z" fill="url(#paint1_linear_1118_286)"/>
    <defs>
      <linearGradient id="paint0_linear_1118_286" x1="6.63125" y1="15.9422" x2="67.9631" y2="99.2358" gradientUnits="userSpaceOnUse">
        <stop stop-color="#41D1FF"/>
        <stop offset="1" stop-color="#BD34FE"/>
      </linearGradient>
      <linearGradient id="paint1_linear_1118_286" x1="57.1567" y1="9.46575" x2="68.2513" y2="85.5738" gradientUnits="userSpaceOnUse">
        <stop stop-color="#FFEA83"/>
        <stop offset="0.0833" stop-color="#FFDD35"/>
        <stop offset="1" stop-color="#FFA800"/>
      </linearGradient>
    </defs>
  </symbol>
  <symbol id="icon-webpack" viewBox="0 0 120 120">
    <path d="M109.959 91.9688L62.1 119.062V97.9594L91.875 81.5625L109.959 91.9688ZM113.241 89.0063V32.3906L95.7281 42.5156V78.9L113.231 88.9969L113.241 89.0063ZM10.0406 91.9688L57.8531 119.044V97.9594L28.0687 81.5625L10.0406 91.9688ZM6.75937 89.0063V32.3906L24.2719 42.5156V78.9L6.75937 89.0063ZM8.81249 28.725L57.9 0.9375V21.3375L26.4469 38.6344L26.1937 38.775L8.81249 28.725ZM111.169 28.725L62.1 0.9375V21.3375L93.5531 38.625L93.8062 38.7656L111.187 28.725H111.169Z" fill="#8ED6FB"/>
    <path d="M57.9 93.1594L28.4719 76.9688V44.925L57.9 61.875V93.1594ZM62.1 93.1594L91.5281 76.9875V44.925L62.1 61.875V93.1594ZM30.4687 41.25L60 24.9938L89.5312 41.25L60 58.275L30.4687 41.25Z" fill="#1C78C0"/>
  </symbol>
  <symbol id="icon-sass" viewBox="0 0 120 120">
    <g clip-path="url(#clip0_9_34)">
      <path d="M100.673 50.0766C96.6031 50.0975 93.0654 51.0694 90.1035 52.5063C89.0163 50.3721 87.9295 48.4708 87.738 47.076C87.5246 45.4493 87.2691 44.4561 87.5246 42.5122C87.7805 40.5683 88.9313 37.8001 88.9098 37.589C88.8888 37.3778 88.6539 36.3846 86.3099 36.3637C83.9659 36.3424 81.9413 36.8073 81.7069 37.42C81.4725 38.0326 81.025 39.4273 80.7266 40.8637C80.3217 42.9771 76.0386 50.5198 73.5882 54.471C72.7994 52.9291 72.1175 51.5765 71.9681 50.499C71.7551 48.8722 71.4992 47.879 71.7551 45.9351C72.011 43.9912 73.1618 41.2235 73.1403 41.0119C73.1188 40.8007 72.8844 39.8075 70.5404 39.7866C68.1959 39.7653 66.1714 40.2302 65.9374 40.8429C65.7029 41.4559 65.447 42.8923 64.9571 44.2871C64.4667 45.6818 58.777 58.275 57.2853 61.5285C56.6825 62.8453 56.0501 64.1487 55.3887 65.4376C55.3887 65.4376 55.3672 65.501 55.3032 65.6066C55.0954 66.0107 54.8825 66.4122 54.6643 66.811V66.8318C54.3444 67.4028 54.0035 67.9307 53.833 67.9307C53.7051 67.9307 53.4706 66.4095 53.8755 64.3387C54.7279 59.9652 56.7524 53.1615 56.7314 52.9291C56.7314 52.8022 57.1148 51.6191 55.4102 51.006C53.7476 50.3934 53.1512 51.4075 53.0018 51.4075C52.8528 51.4075 52.7458 51.7668 52.7458 51.7668C52.7458 51.7668 54.6004 44.118 49.2086 44.118C45.8418 44.118 41.1959 47.7734 38.8944 51.0694C36.278 52.4811 33.664 53.8968 31.0521 55.3166C29.7953 56.0139 28.4951 56.7113 27.2804 57.3661C27.1949 57.2818 27.1099 57.1758 27.0245 57.0915C20.5034 50.1822 8.44206 45.3012 8.95345 36.0257C9.1454 32.6449 10.3172 23.7705 32.1178 12.9947C50.0609 4.22583 64.3392 6.65549 66.8112 12.0436C70.3484 19.7349 59.1609 34.0183 40.6205 36.0887C33.5455 36.8708 29.8374 34.1661 28.9 33.152C27.9198 32.0953 27.7703 32.0318 27.4079 32.2435C26.8115 32.5606 27.1949 33.5113 27.4079 34.0605C27.9623 35.4969 30.2423 38.0326 34.0994 39.2796C37.5092 40.378 45.7988 40.991 55.8361 37.1454C67.0666 32.8348 75.8467 20.8546 73.2682 10.8183C70.6893 0.633908 53.6411 -2.72556 37.5092 2.95799C27.9198 6.33921 17.5201 11.6634 10.0402 18.594C1.15369 26.834 -0.252978 33.997 0.322395 36.9976C2.3899 47.6465 17.2006 54.5771 23.1248 59.7114C22.8264 59.8804 22.549 60.0286 22.315 60.1555C19.3527 61.6132 8.05818 67.4658 5.24529 73.6568C2.04897 80.6716 5.75714 85.7009 8.20762 86.3765C15.8154 88.4686 23.6362 84.7076 27.8343 78.4953C32.0324 72.2834 31.521 64.2119 29.5819 60.5144C29.5604 60.4722 29.5394 60.4296 29.4964 60.3875C30.2638 59.9439 31.0521 59.479 31.8194 59.0354C33.2297 58.2088 34.6579 57.4126 36.103 56.6474C35.3781 58.6126 34.8453 60.958 34.5898 64.3387C34.2699 68.3113 35.9105 73.4665 38.0631 75.4947C39.0223 76.3828 40.1516 76.4037 40.8764 76.4037C43.3909 76.4037 44.5206 74.3329 45.7778 71.8819C47.312 68.8818 48.6972 65.3954 48.6972 65.3954C48.6972 65.3954 46.9711 74.8191 51.6595 74.8191C53.3642 74.8191 55.0903 72.6214 55.8576 71.5017V71.5226C55.8576 71.5226 55.9001 71.4592 55.9856 71.3114C56.156 71.0368 56.2625 70.8674 56.2625 70.8674V70.8257C56.9444 69.6421 58.479 66.9587 60.759 62.5004C63.6999 56.7534 66.5342 49.5696 66.5342 49.5696C66.5342 49.5696 66.7901 51.3232 67.6635 54.239C68.1753 55.9505 69.2402 57.831 70.0929 59.648C69.4111 60.5991 68.9847 61.127 68.9847 61.127L69.0062 61.1483C68.4518 61.8665 67.8554 62.6481 67.1946 63.4094C64.8716 66.1558 62.1017 69.3045 61.7178 70.2126C61.2699 71.2901 61.3769 72.0722 62.2297 72.7062C62.8475 73.1711 63.9553 73.234 65.0851 73.1711C67.1736 73.0229 68.6438 72.5158 69.3681 72.1991C70.4979 71.7976 71.8191 71.1846 73.0548 70.276C75.3353 68.6067 76.72 66.2192 76.5925 63.0714C76.5285 61.3386 75.9532 59.6059 75.2498 57.9787C75.4633 57.6833 75.6547 57.3874 75.8682 57.0915C79.4694 51.8724 82.2613 46.1462 82.2613 46.1462C82.2613 46.1462 82.5172 47.8998 83.3905 50.8161C83.8169 52.2951 84.6907 53.901 85.4576 55.4643C82.0693 58.1903 79.9808 61.3594 79.2349 63.4302C77.8927 67.2759 78.9365 69.0082 80.9186 69.4097C81.8134 69.6 83.0921 69.1772 84.0299 68.7757C85.2231 68.3956 86.6298 67.7408 87.9725 66.7684C90.253 65.0995 92.4475 62.775 92.3195 59.6272C92.2556 58.1903 91.8721 56.7743 91.3393 55.4009C94.2161 54.2182 97.9243 53.563 102.655 54.1122C112.799 55.2953 114.802 61.5706 114.418 64.2123C114.035 66.8531 111.904 68.29 111.201 68.7336C110.497 69.1777 110.263 69.3254 110.327 69.6421C110.412 70.107 110.753 70.0862 111.35 70.0014C112.181 69.8537 116.678 67.8672 116.869 63.0075C117.189 56.7956 111.222 50.0132 100.673 50.0766ZM22.4215 76.2346C19.0543 79.8687 14.3663 81.2421 12.3417 80.0803C10.1682 78.8333 11.0205 73.4665 15.1546 69.6213C17.6691 67.2759 20.9083 65.0991 23.0608 63.7683C23.5508 63.4724 24.2756 63.0501 25.1494 62.5217C25.2984 62.437 25.3838 62.3948 25.3838 62.3948L25.8952 62.0776C27.4079 67.5713 25.9592 72.4103 22.4215 76.2346ZM46.9286 59.7114C45.7563 62.543 43.3059 69.7903 41.8142 69.3888C40.5355 69.0508 39.7467 63.5571 41.5583 58.1269C42.4746 55.4009 44.4137 52.147 45.5434 50.8796C47.376 48.8509 49.4005 48.1744 49.8904 48.9991C50.5088 50.0766 47.6529 57.9365 46.9286 59.7114ZM67.1521 69.3041C66.6617 69.5578 66.1933 69.7269 65.9799 69.6C65.8309 69.5153 66.1933 69.1772 66.1933 69.1772C66.1933 69.1772 68.7292 66.473 69.7305 65.2473C70.3064 64.5291 70.9878 63.684 71.7126 62.7329V63.0075C71.7126 66.2405 68.5583 68.4169 67.1516 69.3041H67.1521ZM82.7512 65.7756C82.3888 65.5219 82.4527 64.6768 83.6675 62.0355C84.1364 61.0001 85.2441 59.2678 87.1412 57.5985C87.3542 58.2746 87.5036 58.9298 87.4821 59.5424C87.4606 63.6205 84.5202 65.1417 82.7512 65.7756Z" fill="#CD6799"/>
    </g>
    <defs>
      <clipPath id="clip0_9_34">
        <rect width="117" height="87" fill="white"/>
      </clipPath>
    </defs>
  </symbol>
  <symbol id="icon-figma" viewBox="0 0 120 120">
    <path fill-rule="evenodd" clip-rule="evenodd" d="M60 60C60 51.7159 66.7159 45 75 45C83.2841 45 90 51.7159 90 60C90 68.2841 83.2841 75 75 75C66.7159 75 60 68.2841 60 60Z" fill="#1ABCFE"/>
    <path fill-rule="evenodd" clip-rule="evenodd" d="M30 90C30 81.7159 36.7157 75 45 75H60V90C60 98.2841 53.2841 105 45 105C36.7157 105 30 98.2841 30 90Z" fill="#0ACF83"/>
    <path fill-rule="evenodd" clip-rule="evenodd" d="M60 15V45H75C83.2841 45 90 38.2841 90 30C90 21.7157 83.2841 15 75 15H60Z" fill="#FF7262"/>
    <path fill-rule="evenodd" clip-rule="evenodd" d="M30 30C30 38.2841 36.7157 45 45 45H60V15H45C36.7157 15 30 21.7157 30 30Z" fill="#F24E1E"/>
    <path fill-rule="evenodd" clip-rule="evenodd" d="M30 60C30 68.2841 36.7157 75 45 75H60V45H45C36.7157 45 30 51.7159 30 60Z" fill="#A259FF"/>
  </symbol>
  <symbol id="icon-photoshop" viewBox="0 0 120 120">
    <path d="M11.8763 13.1887H108.124V106.811H11.8763V13.1887Z" fill="#0C0824"/>
    <path d="M11.8763 13.1888H108.124V106.811H11.8763V13.1888ZM7.5 111.188H112.5V8.8125H7.5V111.188ZM78.2887 50.8125C74.8313 50.8125 73.65 52.5638 73.65 54.0075C73.65 55.5825 74.4375 56.6775 79.0762 59.0813C85.9463 62.4075 88.0762 65.5988 88.0762 70.2825C88.0762 77.2838 82.74 81.045 75.5212 81.045C72.4232 81.1598 69.3439 80.5161 66.5513 79.17C66.2437 79.0387 66.2025 78.8212 66.2025 78.4687V72.03C66.2025 71.5912 66.42 71.46 66.7275 71.6812C69.3502 73.3678 72.4031 74.2634 75.5212 74.2612C78.9788 74.2612 80.4225 72.8175 80.4225 70.8487C80.4225 69.2737 79.4175 67.875 74.9963 65.5987C68.7825 62.625 66.2025 59.5988 66.2025 54.5738C66.2025 48.93 70.62 44.25 78.2775 44.25C80.943 44.1355 83.6046 44.5524 86.1075 45.4762C86.2516 45.5698 86.3683 45.7001 86.4454 45.8536C86.5225 46.0072 86.5573 46.1785 86.5462 46.35V52.35C86.5462 52.6988 86.3288 52.92 85.89 52.7887C83.5768 51.4571 80.9462 50.7768 78.2775 50.82L78.2887 50.8125ZM40.6613 56.0175C41.6663 56.1037 42.4538 56.1038 44.205 56.1038C49.3237 56.1038 54.135 54.3112 54.135 47.355C54.135 41.7975 50.6775 39 44.8613 39C43.11 39 41.4488 39.0863 40.6613 39.1313V56.0175ZM32.8725 32.7675C32.8725 32.46 33.4837 32.2425 33.8362 32.2425C36.6375 32.1112 40.7925 32.025 45.1237 32.025C57.2438 32.025 61.9688 38.6737 61.9688 47.1637C61.9688 58.275 53.9175 63.045 44.0325 63.045C42.3713 63.045 41.8013 62.9587 40.62 62.9587V79.7587C40.62 80.1075 40.4888 80.2838 40.095 80.2838H33.4012C33.0525 80.2838 32.8763 80.1525 32.8763 79.7587V32.7863L32.8725 32.7675Z" fill="#31C5F0"/>
  </symbol>
  <symbol id="icon-vscode" viewBox="0 0 120 120">
    <path d="M108.787 18.8625L87.165 8.45247C85.9439 7.86371 84.5699 7.66942 83.2335 7.89653C81.897 8.12364 80.6643 8.7609 79.7062 9.71997L8.925 74.25C8.06622 75.0292 7.55215 76.1177 7.49589 77.276C7.43963 78.4342 7.84578 79.5674 8.625 80.4262C8.71875 80.5275 8.8125 80.625 8.91375 80.715L14.6925 85.965C15.4476 86.6522 16.4196 87.0533 17.4396 87.0985C18.4596 87.1437 19.4633 86.8302 20.2763 86.2125L105.533 21.5625C106.176 21.0738 106.944 20.7746 107.749 20.6985C108.554 20.6225 109.364 20.7725 110.088 21.1319C110.812 21.4912 111.421 22.0455 111.848 22.7324C112.274 23.4194 112.5 24.2116 112.5 25.02V24.7687C112.5 23.5346 112.151 22.3256 111.495 21.2807C110.838 20.2359 109.9 19.3976 108.787 18.8625Z" fill="#0065A9"/>
    <path d="M108.787 101.137L87.165 111.551C85.9436 112.138 84.5699 112.332 83.2339 112.105C81.8978 111.878 80.6652 111.241 79.7062 110.284L8.925 45.75C8.06622 44.9707 7.55215 43.8823 7.49589 42.724C7.43963 41.5657 7.84578 40.4326 8.625 39.5737C8.71875 39.4725 8.8125 39.375 8.91375 39.285L14.6925 34.035C15.4484 33.3449 16.4226 32.942 17.4451 32.8968C18.4677 32.8516 19.4736 33.1668 20.2875 33.7875L105.533 98.4375C106.176 98.9262 106.944 99.2254 107.749 99.3014C108.554 99.3775 109.364 99.2274 110.088 98.8681C110.812 98.5088 111.421 97.9544 111.848 97.2675C112.274 96.5806 112.5 95.7884 112.5 94.98V95.25C112.496 96.4808 112.146 97.6857 111.489 98.7268C110.833 99.768 109.896 100.603 108.787 101.137Z" fill="#007ACC"/>
    <path d="M87.165 111.551C85.9435 112.138 84.5699 112.332 83.2339 112.105C81.8978 111.878 80.6652 111.241 79.7062 110.284C80.2448 110.815 80.9282 111.176 81.6708 111.321C82.4135 111.466 83.1823 111.388 83.881 111.098C84.5798 110.807 85.1773 110.317 85.5987 109.689C86.0201 109.06 86.2467 108.322 86.25 107.565V12.435C86.2506 11.6749 86.0256 10.9316 85.6035 10.2994C85.1813 9.66723 84.5811 9.17456 83.8787 8.88382C83.1763 8.59307 82.4035 8.51733 81.658 8.66619C80.9126 8.81505 80.2281 9.18182 79.6912 9.72002C80.6495 8.7613 81.8819 8.124 83.2181 7.89626C84.5543 7.66852 85.9283 7.86159 87.15 8.44877L108.769 18.8438C109.884 19.3763 110.827 20.2133 111.487 21.2584C112.147 22.3035 112.498 23.5139 112.5 24.75V95.25C112.5 96.4852 112.152 97.6953 111.494 98.7409C110.837 99.7865 109.897 100.625 108.784 101.16L87.165 111.551Z" fill="#1F9CF0"/>
  </symbol>
  <symbol id="icon-git" viewBox="0 0 120 120">
    <g clip-path="url(#clip0_9_40)">
      <path d="M117.737 54.6536L65.3438 2.26325C62.3283 -0.754092 57.4345 -0.754092 54.4153 2.26325L43.5356 13.1429L57.337 26.9443C60.5442 25.8606 64.222 26.5876 66.7786 29.1442C69.3473 31.7172 70.0692 35.4264 68.9592 38.6439L82.26 51.9451C85.478 50.8365 89.1909 51.5537 91.7611 54.1281C95.3531 57.7187 95.3531 63.5383 91.7611 67.1312C88.1681 70.7247 82.3486 70.7247 78.7537 67.1312C76.0519 64.4265 75.3844 60.4586 76.7522 57.13L64.3481 44.7259L64.3467 77.3683C65.2459 77.8129 66.0672 78.4002 66.7786 79.1073C70.3706 82.698 70.3706 88.518 66.7786 92.1137C63.1856 95.7053 57.3633 95.7053 53.7755 92.1137C50.1834 88.518 50.1834 82.6984 53.7755 79.1078C54.6363 78.2466 55.6593 77.5645 56.7853 77.1011V44.1545C55.6576 43.6942 54.6341 43.0117 53.7755 42.1478C51.0539 39.43 50.3995 35.4367 51.7941 32.095L38.1891 18.4886L2.26406 54.4112C-0.754688 57.4314 -0.754688 62.3256 2.26406 65.3434L54.6581 117.735C57.6745 120.752 62.5673 120.752 65.5875 117.735L117.736 65.5867C120.754 62.568 120.754 57.6709 117.736 54.6536" fill="#DE4C36"/>
    </g>
    <defs>
      <clipPath id="clip0_9_40">
        <rect width="120" height="120" fill="white"/>
      </clipPath>
    </defs>
  </symbol>
  <symbol id="icon-github" viewBox="0 0 120 120">
    <g clip-path="url(#clip0_10_90)">
      <path fill-rule="evenodd" clip-rule="evenodd" d="M10 0C4.475 0 0 4.475 0 10C0 14.425 2.8625 18.1625 6.8375 19.4875C7.3375 19.575 7.525 19.275 7.525 19.0125C7.525 18.775 7.5125 17.9875 7.5125 17.15C5 17.6125 4.35 16.5375 4.15 15.975C4.0375 15.6875 3.55 14.8 3.125 14.5625C2.775 14.375 2.275 13.9125 3.1125 13.9C3.9 13.8875 4.4625 14.625 4.65 14.925C5.55 16.4375 6.9875 16.0125 7.5625 15.75C7.65 15.1 7.9125 14.6625 8.2 14.4125C5.975 14.1625 3.65 13.3 3.65 9.475C3.65 8.3875 4.0375 7.4875 4.675 6.7875C4.575 6.5375 4.225 5.5125 4.775 4.1375C4.775 4.1375 5.6125 3.875 7.525 5.1625C8.325 4.9375 9.175 4.825 10.025 4.825C10.875 4.825 11.725 4.9375 12.525 5.1625C14.4375 3.8625 15.275 4.1375 15.275 4.1375C15.825 5.5125 15.475 6.5375 15.375 6.7875C16.0125 7.4875 16.4 8.375 16.4 9.475C16.4 13.3125 14.0625 14.1625 11.8375 14.4125C12.2 14.725 12.5125 15.325 12.5125 16.2625C12.5125 17.6 12.5 18.675 12.5 19.0125C12.5 19.275 12.6875 19.5875 13.1875 19.4875C15.1726 18.8173 16.8976 17.5414 18.1197 15.8395C19.3418 14.1375 19.9994 12.0952 20 10C20 4.475 15.525 0 10 0Z" fill="black"/>
    </g>
    <defs>
      <clipPath id="clip0_10_90">
        <rect width="20" height="20" fill="white"/>
      </clipPath>
    </defs>
  </symbol>
  <symbol id="icon-typescript" viewBox="0 0 120 120">
    <desc>Typescript Icon Streamline Icon: https://streamlinehq.com</desc>
    <path fill="#3178c6" d="M2.0859375 0.25H21.91405C22.928025 0.25 23.75 1.0719775 23.75 2.0859375V21.91405C23.75 22.928025 22.928025 23.75 21.91405 23.75H2.0859375C1.0719775 23.75 0.25 22.928025 0.25 21.91405V2.0859375C0.25 1.0719775 1.0719775 0.25 2.0859375 0.25Z" stroke-width="0.25"></path>
    <path fill="#ffffff" d="M14.067075 18.652975v2.535425c0.41235 0.211325 0.900075 0.369775 1.463075 0.475425 0.562975 0.10565 1.15635 0.15845 1.7802 0.15845 0.607875 0 1.185475 -0.058125 1.732575 -0.174325 0.547125 -0.116225 1.02695 -0.3077 1.4392 -0.574375 0.41235 -0.266775 0.738775 -0.6154 0.979375 -1.04595 0.2405 -0.430425 0.360775 -0.962575 0.360775 -1.596425 0 -0.459525 -0.068775 -0.86235 -0.206175 -1.208325 -0.137425 -0.345975 -0.3357 -0.653675 -0.594775 -0.923025 -0.25895 -0.269425 -0.569575 -0.511025 -0.931625 -0.725 -0.36215 -0.2139 -0.77055 -0.415925 -1.225225 -0.60605 -0.333025 -0.137425 -0.63165 -0.2707 -0.896025 -0.40015 -0.264275 -0.129425 -0.489 -0.261425 -0.673975 -0.396175 -0.18505 -0.134675 -0.3278 -0.277325 -0.428225 -0.427875 -0.100425 -0.15055 -0.15065 -0.320825 -0.15065 -0.511025 0 -0.174325 0.0449 -0.3314 0.134775 -0.471375 0.08985 -0.14 0.216825 -0.26015 0.380675 -0.3605 0.16385 -0.100425 0.3647 -0.178275 0.60265 -0.2338 0.237825 -0.05545 0.5022 -0.083175 0.792925 -0.083175 0.2115 0 0.43485 0.015875 0.670025 0.04755 0.235275 0.031675 0.47185 0.0805 0.709775 0.1466 0.23785 0.066 0.4691 0.149175 0.6938 0.2496 0.224625 0.100325 0.432175 0.21655 0.622475 0.34855v-2.369c-0.3859 -0.147875 -0.807525 -0.2575 -1.264775 -0.328825 -0.457225 -0.071325 -0.98195 -0.106925 -1.574025 -0.106925 -0.60265 0 -1.17355 0.0647 -1.71275 0.19415 -0.539225 0.129325 -1.013725 0.331375 -1.4234 0.606025 -0.4097 0.27475 -0.733475 0.624675 -0.9714 1.0499 -0.23785 0.4252 -0.356825 0.933575 -0.356825 1.5252 0 0.7553 0.218025 1.399725 0.65425 1.933225 0.436125 0.53345 1.09815 0.985075 1.9863 1.35485 0.348925 0.14265 0.67405 0.28255 0.975325 0.41995 0.301375 0.13735 0.561725 0.2799 0.7811 0.427775 0.2194 0.1479 0.392525 0.309 0.5194 0.483325 0.12685 0.174325 0.1903 0.372425 0.1903 0.5943 0 0.163675 -0.039675 0.315575 -0.118975 0.455575 -0.079225 0.1399 -0.199575 0.26145 -0.360775 0.364425 -0.161175 0.103 -0.362125 0.183525 -0.602625 0.241625 -0.240525 0.0581 -0.52205 0.0872 -0.84455 0.0872 -0.549775 0 -1.0942 -0.096375 -1.633425 -0.28925 -0.5393 -0.192775 -1.038875 -0.481925 -1.498775 -0.867575ZM9.841125 12.3435h3.260425v-2.08765H4.013675v2.08765h3.244525v9.295175h2.582925V12.3435Z" stroke-width="0.25"></path>
  </symbol>
  <symbol id="icon-prettier" viewBox="0 0 120 120">
      <path fill="#56b3b4" d="M18.81475 4.7262h-1.320125c-0.253475 0 -0.458975 0.2055 -0.458975 0.458975v0.201075c0 0.2535 0.2055 0.459 0.458975 0.459h1.320125c0.2535 0 0.458975 -0.2055 0.458975 -0.459v-0.201075c0 -0.253475 -0.205475 -0.458975 -0.458975 -0.458975Z" stroke-width="0.25"></path>
      <path fill="#ea5e5e" d="M6.505275 22.630975H0.7089825C0.4554925 22.630975 0.25 22.836475 0.25 23.089975v0.201075c0 0.253475 0.2054925 0.458975 0.4589825 0.458975H6.505275c0.2535 0 0.459 -0.2055 0.459 -0.458975v-0.201075c0 -0.2535 -0.2055 -0.459 -0.459 -0.459Z" stroke-width="0.25"></path>
      <path fill="#bf85bf" d="M17.69565 13.678475H14.13745c-0.2535 0 -0.458975 0.205475 -0.458975 0.458975v0.201075c0 0.2535 0.205475 0.458975 0.458975 0.458975h3.5582c0.2535 0 0.459 -0.205475 0.459 -0.458975v-0.201075c0 -0.2535 -0.2055 -0.458975 -0.459 -0.458975Z" stroke-width="0.25"></path>
      <path fill="#ea5e5e" d="M12.1006 13.678475h-4.67725c-0.2535 0 -0.459 0.205475 -0.459 0.458975v0.201075c0 0.2535 0.2055 0.458975 0.459 0.458975h4.67725c0.253475 0 0.458975 -0.205475 0.458975 -0.458975v-0.201075c0 -0.2535 -0.2055 -0.458975 -0.458975 -0.458975Z" stroke-width="0.25"></path>
      <path fill="#56b3b4" d="M5.38625 13.678475H0.7089825C0.4554925 13.678475 0.25 13.88395 0.25 14.13745v0.201075c0 0.2535 0.2054925 0.458975 0.4589825 0.458975H5.38625c0.253475 0 0.458975 -0.205475 0.458975 -0.458975v-0.201075c0 -0.2535 -0.2055 -0.458975 -0.458975 -0.458975Z" stroke-width="0.25"></path>
      <path fill="#bf85bf" d="M6.505275 18.154775H0.7089825C0.4554925 18.154775 0.25 18.360275 0.25 18.613775v0.201075c0 0.253475 0.2054925 0.458975 0.4589825 0.458975H6.505275c0.2535 0 0.459 -0.2055 0.459 -0.458975v-0.201075c0 -0.2535 -0.2055 -0.459 -0.459 -0.459Z" stroke-width="0.25"></path>
      <path fill="#bf85bf" d="M6.505275 9.2024H0.7089825C0.4554925 9.2024 0.25 9.407875 0.25 9.661375v0.201075c0 0.2535 0.2054925 0.458975 0.4589825 0.458975H6.505275c0.2535 0 0.459 -0.205475 0.459 -0.458975v-0.201075c0 -0.2535 -0.2055 -0.458975 -0.459 -0.458975Z" stroke-width="0.25"></path>
      <path fill="#f7ba3e" d="M17.6956 2.4880375H6.304075c-0.2535 0 -0.458975 0.2054875 -0.458975 0.4589875v0.201075c0 0.2535 0.205475 0.458975 0.458975 0.458975h11.391525c0.253475 0 0.458975 -0.205475 0.458975 -0.458975v-0.201075c0 -0.2535 -0.2055 -0.4589875 -0.458975 -0.4589875Z" stroke-width="0.25"></path>
      <path fill="#ea5e5e" d="M4.2672 2.4880375H0.7089825C0.4554925 2.4880375 0.25 2.693525 0.25 2.947025v0.201075c0 0.2535 0.2054925 0.458975 0.4589825 0.458975H4.2672c0.253475 0 0.458975 -0.205475 0.458975 -0.458975v-0.201075c0 -0.2535 -0.2055 -0.4589875 -0.458975 -0.4589875Z" stroke-width="0.25"></path>
      <path fill="#f7ba3e" d="M6.5053 20.392825h-1.320125c-0.253475 0 -0.458975 0.2055 -0.458975 0.458975v0.201075c0 0.2535 0.2055 0.459 0.458975 0.459h1.320125c0.2535 0 0.458975 -0.2055 0.458975 -0.459v-0.201075c0 -0.253475 -0.205475 -0.458975 -0.458975 -0.458975Z" stroke-width="0.25"></path>
      <path fill="#56b3b4" d="M6.5053 6.96435h-1.320125c-0.253475 0 -0.458975 0.2055 -0.458975 0.459v0.201075c0 0.253475 0.2055 0.458975 0.458975 0.458975h1.320125c0.2535 0 0.458975 -0.2055 0.458975 -0.458975v-0.201075c0 -0.2535 -0.205475 -0.459 -0.458975 -0.459Z" stroke-width="0.25"></path>
      <path fill="#56b3b4" d="M3.14815 20.392825H0.7089825C0.4554925 20.392825 0.25 20.598325 0.25 20.8518v0.201075c0 0.2535 0.2054925 0.459 0.4589825 0.459h2.4391675c0.2535 0 0.458975 -0.2055 0.458975 -0.459v-0.201075c0 -0.253475 -0.205475 -0.458975 -0.458975 -0.458975Z" stroke-width="0.25"></path>
      <path fill="#f7ba3e" d="M3.14815 6.96435H0.7089825C0.4554925 6.96435 0.25 7.16985 0.25 7.42335v0.201075c0 0.253475 0.2054925 0.458975 0.4589825 0.458975h2.4391675c0.2535 0 0.458975 -0.2055 0.458975 -0.458975v-0.201075c0 -0.2535 -0.205475 -0.459 -0.458975 -0.459Z" stroke-width="0.25"></path>
      <path fill="#d0d4d8" d="M16.576725 20.392825h-1.320125c-0.2535 0 -0.459 0.2055 -0.459 0.458975v0.201075c0 0.2535 0.2055 0.459 0.459 0.459h1.320125c0.253475 0 0.458975 -0.2055 0.458975 -0.459v-0.201075c0 -0.253475 -0.2055 -0.458975 -0.458975 -0.458975Z" opacity=".5" stroke-width="0.25"></path>
      <path fill="#d0d4d8" d="M13.2195 20.392825H8.542225c-0.253475 0 -0.458975 0.2055 -0.458975 0.458975v0.201075c0 0.2535 0.2055 0.459 0.458975 0.459H13.2195c0.253475 0 0.458975 -0.2055 0.458975 -0.459v-0.201075c0 -0.253475 -0.2055 -0.458975 -0.458975 -0.458975Z" opacity=".5" stroke-width="0.25"></path>
      <path fill="#d0d4d8" d="M23.291025 20.392825h-4.67725c-0.2535 0 -0.459 0.2055 -0.459 0.458975v0.201075c0 0.2535 0.2055 0.459 0.459 0.459h4.67725c0.2535 0 0.458975 -0.2055 0.458975 -0.459v-0.201075c0 -0.253475 -0.205475 -0.458975 -0.458975 -0.458975Z" opacity=".5" stroke-width="0.25"></path>
      <path fill="#56b3b4" d="M18.8148 11.440425H9.661375c-0.2535 0 -0.458975 0.2055 -0.458975 0.459v0.201075c0 0.253475 0.205475 0.458975 0.458975 0.458975h9.153425c0.2535 0 0.459 -0.2055 0.459 -0.458975v-0.201075c0 -0.2535 -0.2055 -0.459 -0.459 -0.459Z" stroke-width="0.25"></path>
      <path fill="#f7ba3e" d="M7.62425 11.440425H4.06605c-0.2535 0 -0.459 0.2055 -0.459 0.459v0.201075c0 0.253475 0.2055 0.458975 0.459 0.458975H7.62425c0.2535 0 0.458975 -0.2055 0.458975 -0.458975v-0.201075c0 -0.2535 -0.205475 -0.459 -0.458975 -0.459Z" stroke-width="0.25"></path>
      <path fill="#ea5e5e" d="M2.029105 11.440425H0.7089825C0.4554925 11.440425 0.25 11.645925 0.25 11.899425v0.201075c0 0.253475 0.2054925 0.458975 0.4589825 0.458975h1.3201225c0.25349 0 0.458985 -0.2055 0.458985 -0.458975v-0.201075c0 -0.2535 -0.205495 -0.459 -0.458985 -0.459Z" stroke-width="0.25"></path>
      <path fill="#bf85bf" d="M15.45765 4.7262h-4.67725c-0.2535 0 -0.459 0.2055 -0.459 0.458975v0.201075c0 0.2535 0.2055 0.459 0.459 0.459h4.67725c0.2535 0 0.458975 -0.2055 0.458975 -0.459v-0.201075c0 -0.253475 -0.205475 -0.458975 -0.458975 -0.458975Z" stroke-width="0.25"></path>
      <path fill="#56b3b4" d="M8.743375 4.7262H0.7089825C0.4554925 4.7262 0.25 4.9317 0.25 5.185175v0.201075c0 0.2535 0.2054925 0.459 0.4589825 0.459H8.743375c0.253475 0 0.458975 -0.2055 0.458975 -0.459v-0.201075c0 -0.253475 -0.2055 -0.458975 -0.458975 -0.458975Z" stroke-width="0.25"></path>
      <path fill="#f7ba3e" d="M14.338525 15.916625H4.06605c-0.2535 0 -0.459 0.2055 -0.459 0.458975v0.201075c0 0.2535 0.2055 0.459 0.459 0.459h10.272475c0.253475 0 0.458975 -0.2055 0.458975 -0.459v-0.201075c0 -0.253475 -0.2055 -0.458975 -0.458975 -0.458975Z" stroke-width="0.25"></path>
      <path fill="#bf85bf" d="M2.029105 15.916625H0.7089825C0.4554925 15.916625 0.25 16.122125 0.25 16.3756v0.201075c0 0.2535 0.2054925 0.459 0.4589825 0.459h1.3201225c0.25349 0 0.458985 -0.2055 0.458985 -0.459v-0.201075c0 -0.253475 -0.205495 -0.458975 -0.458985 -0.458975Z" stroke-width="0.25"></path>
      <path fill="#ea5e5e" d="M19.93375 6.96435H14.13745c-0.2535 0 -0.458975 0.2055 -0.458975 0.459v0.201075c0 0.253475 0.205475 0.458975 0.458975 0.458975H19.93375c0.2535 0 0.458975 -0.2055 0.458975 -0.458975v-0.201075c0 -0.2535 -0.205475 -0.459 -0.458975 -0.459Z" stroke-width="0.25"></path>
      <path fill="#f7ba3e" d="M19.93375 9.2024H14.13745c-0.2535 0 -0.458975 0.205475 -0.458975 0.458975v0.201075c0 0.2535 0.205475 0.458975 0.458975 0.458975H19.93375c0.2535 0 0.458975 -0.205475 0.458975 -0.458975v-0.201075c0 -0.2535 -0.205475 -0.458975 -0.458975 -0.458975Z" stroke-width="0.25"></path>
      <path fill="#56b3b4" d="M14.3386 0.25H0.7089825C0.4554925 0.25 0.25 0.4554925 0.25 0.7089825v0.20108c0 0.2534875 0.2054925 0.4589825 0.4589825 0.4589825H14.3386c0.253475 0 0.458975 -0.205495 0.458975 -0.4589825v-0.20108C14.797575 0.4554925 14.592075 0.25 14.3386 0.25Z" stroke-width="0.25"></path>
      <path fill="#d0d4d8" d="M23.29095 0.25H16.3756c-0.253475 0 -0.458975 0.2054925 -0.458975 0.4589825v0.20108c0 0.2534875 0.2055 0.4589825 0.458975 0.4589825h6.91535c0.2535 0 0.458975 -0.205495 0.458975 -0.4589825v-0.20108C23.749925 0.4554925 23.54445 0.25 23.29095 0.25Z" opacity=".5" stroke-width="0.25"></path>
      <path fill="#d0d4d8" d="M18.814775 15.916625h-2.439175c-0.253475 0 -0.458975 0.2055 -0.458975 0.458975v0.201075c0 0.2535 0.2055 0.459 0.458975 0.459h2.439175c0.2535 0 0.458975 -0.2055 0.458975 -0.459v-0.201075c0 -0.253475 -0.205475 -0.458975 -0.458975 -0.458975Z" opacity=".5" stroke-width="0.25"></path>
      <path fill="#d0d4d8" d="M23.290975 15.916625h-2.439175c-0.253475 0 -0.458975 0.2055 -0.458975 0.458975v0.201075c0 0.2535 0.2055 0.459 0.458975 0.459h2.439175c0.253475 0 0.458975 -0.2055 0.458975 -0.459v-0.201075c0 -0.253475 -0.2055 -0.458975 -0.458975 -0.458975Z" opacity=".5" stroke-width="0.25"></path>
      <path fill="#d0d4d8" d="M23.291 13.678475H19.732775c-0.253475 0 -0.458975 0.205475 -0.458975 0.458975v0.201075c0 0.2535 0.2055 0.458975 0.458975 0.458975H23.291c0.253475 0 0.458975 -0.205475 0.458975 -0.458975v-0.201075c0 -0.2535 -0.2055 -0.458975 -0.458975 -0.458975Z" opacity=".5" stroke-width="0.25"></path>
      <path fill="#d0d4d8" d="M23.291 2.4880375H19.732775c-0.253475 0 -0.458975 0.2054875 -0.458975 0.4589875v0.201075c0 0.2535 0.2055 0.458975 0.458975 0.458975H23.291c0.253475 0 0.458975 -0.205475 0.458975 -0.458975v-0.201075c0 -0.2535 -0.2055 -0.4589875 -0.458975 -0.4589875Z" opacity=".5" stroke-width="0.25"></path>
      <path fill="#d0d4d8" d="M23.290975 11.440425h-2.439175c-0.253475 0 -0.458975 0.2055 -0.458975 0.459v0.201075c0 0.253475 0.2055 0.458975 0.458975 0.458975h2.439175c0.253475 0 0.458975 -0.2055 0.458975 -0.458975v-0.201075c0 -0.2535 -0.2055 -0.459 -0.458975 -0.459Z" opacity=".5" stroke-width="0.25"></path>
      <path fill="#d0d4d8" d="M23.290975 4.7262h-2.439175c-0.253475 0 -0.458975 0.2055 -0.458975 0.458975v0.201075c0 0.2535 0.2055 0.459 0.458975 0.459h2.439175c0.253475 0 0.458975 -0.2055 0.458975 -0.459v-0.201075c0 -0.253475 -0.2055 -0.458975 -0.458975 -0.458975Z" opacity=".5" stroke-width="0.25"></path>
      <path fill="#d0d4d8" d="M23.291075 6.96435h-1.320125c-0.2535 0 -0.458975 0.2055 -0.458975 0.459v0.201075c0 0.253475 0.205475 0.458975 0.458975 0.458975h1.320125c0.253475 0 0.458975 -0.2055 0.458975 -0.458975v-0.201075c0 -0.2535 -0.2055 -0.459 -0.458975 -0.459Z" opacity=".5" stroke-width="0.25"></path>
      <path fill="#d0d4d8" d="M23.291075 9.2024h-1.320125c-0.2535 0 -0.458975 0.205475 -0.458975 0.458975v0.201075c0 0.2535 0.205475 0.458975 0.458975 0.458975h1.320125c0.253475 0 0.458975 -0.205475 0.458975 -0.458975v-0.201075c0 -0.2535 -0.2055 -0.458975 -0.458975 -0.458975Z" opacity=".5" stroke-width="0.25"></path>
      <path fill="#d0d4d8" d="M23.2909 18.154775H13.018425c-0.253475 0 -0.458975 0.2055 -0.458975 0.459v0.201075c0 0.253475 0.2055 0.458975 0.458975 0.458975h10.272475c0.2535 0 0.459 -0.2055 0.459 -0.458975v-0.201075c0 -0.2535 -0.2055 -0.459 -0.459 -0.459Z" opacity=".5" stroke-width="0.25"></path>
      <path fill="#d0d4d8" d="M10.9814 18.154775h-2.439175c-0.253475 0 -0.458975 0.2055 -0.458975 0.459v0.201075c0 0.253475 0.2055 0.458975 0.458975 0.458975h2.439175c0.2535 0 0.458975 -0.2055 0.458975 -0.458975v-0.201075c0 -0.2535 -0.205475 -0.459 -0.458975 -0.459Z" opacity=".5" stroke-width="0.25"></path>
      <path fill="#d0d4d8" d="M23.290925 22.630975H17.494625c-0.253475 0 -0.458975 0.2055 -0.458975 0.459v0.201075c0 0.253475 0.2055 0.458975 0.458975 0.458975h5.7963c0.2535 0 0.458975 -0.2055 0.458975 -0.458975v-0.201075c0 -0.2535 -0.205475 -0.459 -0.458975 -0.459Z" opacity=".5" stroke-width="0.25"></path>
      <path fill="#d0d4d8" d="M15.457575 22.630975H8.542225c-0.253475 0 -0.458975 0.2055 -0.458975 0.459v0.201075c0 0.253475 0.2055 0.458975 0.458975 0.458975h6.91535c0.2535 0 0.459 -0.2055 0.459 -0.458975v-0.201075c0 -0.2535 -0.2055 -0.459 -0.459 -0.459Z" opacity=".5" stroke-width="0.25"></path>
      <path fill="#d0d4d8" d="M12.10045 6.96435H8.542225c-0.253475 0 -0.458975 0.2055 -0.458975 0.459v0.201075c0 0.253475 0.2055 0.458975 0.458975 0.458975h3.558225c0.253475 0 0.458975 -0.2055 0.458975 -0.458975v-0.201075c0 -0.2535 -0.2055 -0.459 -0.458975 -0.459Z" opacity=".5" stroke-width="0.25"></path>
      <path fill="#d0d4d8" d="M12.10045 9.2024H8.542225c-0.253475 0 -0.458975 0.205475 -0.458975 0.458975v0.201075c0 0.2535 0.2055 0.458975 0.458975 0.458975h3.558225c0.253475 0 0.458975 -0.205475 0.458975 -0.458975v-0.201075c0 -0.2535 -0.2055 -0.458975 -0.458975 -0.458975Z" opacity=".5" stroke-width="0.25"></path>
  </symbol>
  <symbol id="icon-playwright" viewBox="0 0 120 120">
      <path fill="#2d4552" d="M7.99585 13.141725c-0.87725 0.248975 -1.452775 0.685475 -1.8319 1.12165 0.363125 -0.317775 0.849525 -0.609425 1.505675 -0.795425 0.6711 -0.1902 1.243625 -0.188825 1.7167 -0.09755v-0.369925c-0.40355 -0.0369 -0.866225 -0.0075 -1.390475 0.14125Zm-1.872 -3.109775 -3.25795 0.858325s0.059375 0.083875 0.1693 0.195775l2.76235 -0.727875s-0.03915 0.5044 -0.379075 0.9556c0.643 -0.486475 0.705375 -1.281825 0.705375 -1.281825Zm2.727125 7.65675C4.26615 18.923575 1.8404825 13.61025 1.1060875 10.852425c-0.3393 -1.273 -0.487415 -2.2371 -0.5268925 -2.859275 -0.0042425 -0.0646 -0.0022825 -0.11905 0.002285 -0.16895 -0.237835 0.01435 -0.3517015 0.137975 -0.328535 0.49525 0.0394775 0.621825 0.187595 1.585875 0.526895 2.859275C1.5139075 13.936125 3.9399 19.24945 8.52475 18.0146c0.99795 -0.26885 1.747675 -0.758525 2.310475 -1.383625 -0.51875 0.468525 -1.168 0.8375 -1.98425 1.057725Zm0.861575 -10.90855v0.3263h1.79835c-0.0369 -0.115525 -0.074075 -0.219625 -0.110975 -0.3263h-1.687375Z" stroke-width="0.25"></path>
      <path fill="#2d4552" d="M11.9129 9.46735c0.80875 0.229675 1.2365 0.7967 1.462575 1.2985l0.90175 0.2561s-0.123 -1.756175 -1.711525 -2.2074c-1.486075 -0.422225 -2.400575 0.8257 -2.5118 0.9872 0.4323 -0.308 1.063575 -0.56015 1.859 -0.3344Zm7.178175 1.3066c-1.487425 -0.424125 -2.401575 0.8264 -2.511175 0.985625 0.432625 -0.307625 1.063575 -0.559875 1.85865 -0.3331 0.80745 0.23005 1.23485 0.796375 1.461625 1.298525l0.90305 0.25705s-0.125 -1.756525 -1.71215 -2.2081Zm-0.8959 4.6305 -7.501475 -2.097125s0.0812 0.411725 0.3928 0.94485l6.3159 1.765675c0.519975 -0.30085 0.792775 -0.6134 0.792775 -0.6134ZM12.994375 19.918475C7.054675 18.326 7.77275 10.758025 8.733875 7.171825c0.395725 -1.4779 0.802575 -2.576375 1.13995 -3.312725 -0.2013 -0.041425 -0.368025 0.0646 -0.532775 0.39965 -0.358225 0.726575 -0.8163 1.90955 -1.259625 3.5656 -0.96085 3.586125 -1.67895 11.15385 4.2605 12.746325 2.79955 0.75 4.980475 -0.3899 6.60625 -2.18005 -1.543175 1.3977 -3.513425 2.181325 -5.9538 1.52785Z" stroke-width="0.25"></path>
      <path fill="#e2574c" d="M9.7126 15.915175V14.388l-4.243175 1.2032s0.313525 -1.82175 2.526475 -2.4495c0.6711 -0.1902 1.2437 -0.1889 1.7167 -0.09755V6.780125h2.124575c-0.231325 -0.714825 -0.4551 -1.26515 -0.64305 -1.64755 -0.310925 -0.632925 -0.62965 -0.21335 -1.35325 0.39185 -0.50965 0.425775 -1.797675 1.33405 -3.7359 1.85635 -1.938275 0.522625 -3.50525 0.384025 -4.15906 0.2708 -0.9268825 -0.1599 -1.4116925 -0.36345 -1.3663375 0.34155 0.03947 0.621825 0.187595 1.58595 0.5268925 2.859275C1.8405325 13.609875 4.266525 18.9232 8.85135 17.68835c1.197625 -0.3227 2.04295 -0.960525 2.6289 -1.7735h-1.76765v0.000325ZM2.865625 10.89025l3.258275 -0.858325s-0.094975 1.25345 -1.31645 1.57545c-1.2218 0.321675 -1.941825 -0.717125 -1.941825 -0.717125Z" stroke-width="0.25"></path>
      <path fill="#2ead33" d="M21.975075 6.8525c-0.84695 0.148475 -2.878875 0.33345 -5.389975 -0.339625 -2.5118 -0.672675 -4.17835 -1.849175 -4.838625 -2.402175 -0.936 -0.783975 -1.347725 -1.328825 -1.752925 -0.5047 -0.358225 0.726875 -0.816325 1.909875 -1.259725 3.565925 -0.960775 3.586125 -1.67885 11.15385 4.260525 12.7463 5.938125 1.591125 9.09945 -5.322175 10.0603 -8.908625 0.4434 -1.655725 0.637825 -2.9095 0.691325 -3.717925 0.061 -0.915775 -0.568025 -0.64995 -1.7709 -0.439175ZM10.0418 9.81945s0.936 -1.45575 2.523525 -1.00455c1.588525 0.451225 1.711525 2.207425 1.711525 2.207425l-4.23505 -1.202875ZM13.917 16.352c-2.79235 -0.817975 -3.223 -3.04465 -3.223 -3.04465l7.501125 2.0972c0 -0.00035 -1.5141 1.755175 -4.278125 0.94745Zm2.6521 -4.57605s0.9347 -1.45475 2.521925 -1.00225c1.587175 0.4519 1.71215 2.2081 1.71215 2.2081l-4.234075 -1.20585Z" stroke-width="0.25"></path>
      <path fill="#d65348" d="M8.2299 14.808525 5.4695 15.590875s0.29985 -1.708225 2.33335 -2.385175l-1.563075 -5.865975 -0.135075 0.04105c-1.93825 0.5227 -3.505225 0.384025 -4.15903 0.2708 -0.9268775 -0.159825 -1.411685 -0.36345 -1.3663375 0.341625 0.0394775 0.621825 0.187595 1.585875 0.5268925 2.85925 0.7340675 2.757425 3.160075 8.07075 7.744875 6.8359l0.135075 -0.042425 -0.756275 -2.8374ZM2.8657 10.8903l3.258275 -0.858375s-0.094975 1.25345 -1.316425 1.57545c-1.221825 0.321675 -1.94185 -0.717075 -1.94185 -0.717075Z" stroke-width="0.25"></path>
      <path fill="#1d8d22" d="m14.04295 16.382625 -0.1263 -0.0307c-2.792325 -0.8179 -3.223 -3.044575 -3.223 -3.044575l3.86805 1.0812 2.047825 -7.86915 -0.024775 -0.006525c-2.5118 -0.672675 -4.17825 -1.849175 -4.838625 -2.402175 -0.936 -0.783975 -1.347725 -1.328825 -1.752925 -0.5047 -0.357875 0.726875 -0.815975 1.909875 -1.259375 3.565925 -0.960775 3.586125 -1.67885 11.15385 4.260525 12.74625l0.121725 0.027425 0.926875 -3.562975ZM10.0418 9.819475s0.936 -1.455775 2.523525 -1.004575c1.588525 0.451225 1.711525 2.207425 1.711525 2.207425l-4.23505 -1.20285Z" stroke-width="0.25"></path>
      <path fill="#c04b41" d="m8.37055 14.7683 -0.740275 0.2101c0.174875 0.9859 0.483125 1.93205 0.966975 2.7679 0.0842 -0.0186 0.167725 -0.034575 0.2535 -0.058075 0.2248 -0.06065 0.43325 -0.13575 0.63395 -0.21765 -0.5406 -0.802225 -0.898225 -1.726175 -1.11415 -2.702275Zm-0.289075 -6.9439c-0.3804 1.419825 -0.720725 3.46345 -0.62705 5.51325 0.167675 -0.072775 0.3448 -0.140575 0.54155 -0.1964l0.13705 -0.030625c-0.167075 -2.189525 0.194075 -4.4207 0.600925 -5.93875 0.103125 -0.384025 0.206525 -0.741225 0.3096 -1.07435 -0.166025 0.105675 -0.3448 0.213975 -0.548425 0.32555 -0.137325 0.42385 -0.276 0.887125 -0.41365 1.401325Z" stroke-width="0.25"></path>
  </symbol>
  <symbol id="icon-pinia" viewBox="0 0 120 120">
      <path fill="url(#a)" d="M42.893 47.2045c6.2868-5.9898 4.3684-13.398-1.3254-22.3749-5.6938-8.977-17.1555-12.1707-19.2937-10.1334-2.1383 2.0372-2.6122 16.6027 3.0816 25.5796 5.6938 8.9769 11.2507 12.9185 17.5375 6.9287Z"></path>
      <path fill="url(#b)" d="M48.3285 48.0338c4.6509 7.3328 10.8689 4.6516 18.5652-2.6812 7.6964-7.3329 10.8877-21.3793 9.3059-23.8733-1.5819-2.4941-13.6032-2.369-21.2996 4.9638-7.6964 7.3328-11.2225 14.2578-6.5715 21.5907Z"></path>
      <path fill="url(#c)" d="M45.786 43.9994c7.7228.9482 10.7599-6.1864 12.1759-17.7192C59.378 14.7475 53.5406 2.55814 50.914 2.23563 48.2873 1.91312 39.4628 12.3022 38.0468 23.835c-1.416 11.5327.0165 19.2161 7.7392 20.1644Z"></path>
      <path fill="url(#d)" d="M43.841 94.9997c16.1917 0 29.3229-4.7036 29.3229-26.0345S60.0327 30.1304 43.841 30.1304c-16.1918 0-29.3127 17.5039-29.3127 38.8348S27.6492 94.9997 43.841 94.9997Z"></path>
      <path fill="#eaadcc" d="M58.6511 64.6109c2.3132 0 4.1883-.8722 4.1883-1.948 0-1.0759-1.8751-1.9481-4.1883-1.9481-2.3131 0-4.1882.8722-4.1882 1.9481 0 1.0758 1.8751 1.948 4.1882 1.948Z"></path>
      <path fill="#eaadcc" d="M27.6344 63.4272c2.2958.2819 4.2633-.3552 4.3944-1.423.1311-1.0679-1.6237-2.1621-3.9196-2.444-2.2959-.2819-4.2633.3553-4.3945 1.4231-.1311 1.0679 1.6238 2.162 3.9197 2.4439Z"></path>
      <path fill="#000000" d="M38.9693 60.8439c-.1804-.2677-.5436-.3384-.8113-.1581-.2676.1804-.3384.5436-.158.8113.8968 1.3306 2.276 2.103 4.0904 2.3103 1.8065.2064 3.4194-.2565 4.8028-1.3808.2504-.2035.2885-.5716.0849-.8221-.2036-.2504-.5716-.2885-.8221-.0849-1.1378.9247-2.4367 1.2975-3.9329 1.1265-1.4884-.1701-2.5572-.7686-3.2538-1.8022Z"></path>
      <path fill="#000000" d="M30.3033 51.8356c1.156-.0403 2.2188.3916 3.0027 1.1226.784.7309 1.2891 1.761 1.3294 2.9169.0404 1.1559-.3916 2.2187-1.1226 3.0026-.731.7839-1.7612 1.289-2.9171 1.3293-1.1559.0404-2.2186-.3915-3.0025-1.1226-.7838-.731-1.2888-1.761-1.3292-2.917-.0404-1.1559.3916-2.2186 1.1225-3.0025.731-.7839 1.761-1.2889 2.9168-1.3293Z"></path>
      <path fill="#ffffff" d="M30.5242 55.3364c-.0263-.7525-.658-1.3415-1.4103-1.3152-.7527.0263-1.3416.6578-1.3153 1.4104.0263.7526.6577 1.3415 1.4105 1.3152.7522-.0265 1.3413-.6578 1.3151-1.4104Z"></path>
      <path fill="#000000" d="M55.6815 52.8981c1.1559-.0403 2.2187.3916 3.0026 1.1225.7839.731 1.2889 1.7611 1.3293 2.917.0403 1.1559-.3916 2.2187-1.1226 3.0026-.731.784-1.761 1.289-2.917 1.3293-1.1558.0404-2.2187-.3916-3.0026-1.1226-.7839-.731-1.2889-1.7611-1.3293-2.917-.0403-1.1559.3916-2.2186 1.1226-3.0025.7311-.7839 1.7611-1.2889 2.917-1.3293Z"></path>
      <path fill="#ffffff" d="M30.2747 50.9597c2.7957-.0976 5.1411 2.0893 5.2387 4.8849.0977 2.7957-2.0894 5.141-4.8852 5.2387-2.7956.0976-5.1407-2.0894-5.2383-4.8852-.0977-2.7956 2.0893-5.1408 4.8848-5.2384Zm3.4866 4.9461c-.0639-1.8279-1.5974-3.2578-3.4254-3.194-1.8279.0639-3.2577 1.5972-3.1939 3.4251.0639 1.8281 1.5972 3.258 3.425 3.1942 1.8281-.0638 3.2581-1.5973 3.1943-3.4253Z"></path>
      <path fill="#ffffff" d="M55.6499 52.0222c2.7957-.0976 5.1409 2.0893 5.2385 4.8849.0977 2.7958-2.0893 5.141-4.885 5.2387-2.7956.0976-5.1409-2.0895-5.2385-4.8852-.0977-2.7955 2.0894-5.1408 4.885-5.2384Zm3.4864 4.9461c-.0639-1.8279-1.5972-3.2578-3.4252-3.194-1.8279.0639-3.2579 1.5973-3.1941 3.4251.0639 1.8281 1.5973 3.258 3.4252 3.1942 1.8281-.0638 3.2579-1.5972 3.1941-3.4253Z"></path>
      <path fill="#ffffff" d="M55.9011 56.3994c-.0263-.7526-.6578-1.3415-1.4104-1.3152-.7525.0263-1.3414.6578-1.3152 1.4104.0263.7525.6579 1.3415 1.4104 1.3152.7526-.0263 1.3415-.6578 1.3152-1.4104Z"></path>
      <path fill="#ecb732" d="m22.4113 70.2001 6.3547 6.6122 4.5595-4.8504c.4053-.4311 1.0833-.4521 1.5145-.0468.4311.4052.4521 1.0833.0468 1.5145l-4.634 4.9298 6.5739 6.8405c.41.4267.3965 1.1049-.0301 1.5149-.4266.41-1.1049.3966-1.5149-.0301l-6.4985-6.762-3.0521 3.247c-.4053.4311-1.0833.4521-1.5145.0468-.4311-.4053-.4521-1.0833-.0468-1.5145l3.1267-3.3262-6.4302-6.6909c-.41-.4266-.3965-1.1049.0301-1.5149.4266-.41 1.1049-.3965 1.5149.0301Z"></path>
      <path fill="#ecb732" d="M65.0854 70.2001c.41-.4266 1.0883-.4401 1.5149-.0301.4267.41.4401 1.0883.0301 1.5149l-6.4303 6.6909 3.1268 3.3262c.394.4192.3852 1.0718-.0118 1.4801l-.035.0344c-.4312.4053-1.1092.3843-1.5145-.0468l-3.0523-3.247-6.4983 6.762c-.3986.4148-1.0508.4391-1.4788.0633l-.0361-.0332c-.4266-.41-.4401-1.0882-.0301-1.5149l6.5737-6.8405-4.6338-4.9298c-.394-.4192-.3852-1.0718.0118-1.4801l.035-.0344c.4312-.4053 1.1092-.3843 1.5145.0468l4.5593 4.8504 6.3549-6.6122Z"></path>
      <path fill="#ffc73b" d="M50.4483 37.0677c.4185.4184.4185 1.0968 0 1.5152l-4.9889 4.9891 3.0409 3.041c.4068.4068.4181 1.0594.0339 1.4798l-.0339.0355c-.4184.4184-1.0968.4184-1.5152 0l-3.041-3.0409-3.0411 3.0409c-.4184.4184-1.0968.4184-1.5152 0-.4184-.4185-.4184-1.0968 0-1.5153l3.0409-3.041-4.9889-4.9891c-.4068-.4068-.4181-1.0593-.0339-1.4797l.0339-.0355c.4184-.4184 1.0968-.4184 1.5152 0l4.9891 4.9889 4.989-4.9889c.4185-.4184 1.0968-.4184 1.5152 0Z"></path>
      <defs>
        <linearGradient id="a" x1="999.028" x2="1322.02" y1="-748.436" y2="819.057" gradientUnits="userSpaceOnUse">
          <stop stop-color="#52ce63"></stop>
          <stop offset="1" stop-color="#51a256"></stop>
        </linearGradient>
        <linearGradient id="b" x1="842.523" x2="-725.153" y1="1002.32" y2="1324.95" gradientUnits="userSpaceOnUse">
          <stop stop-color="#52ce63"></stop>
          <stop offset="1" stop-color="#51a256"></stop>
        </linearGradient>
        <linearGradient id="c" x1="1036.61" x2="735.026" y1="123.263" y2="2579.44" gradientUnits="userSpaceOnUse">
          <stop stop-color="#8ae99c"></stop>
          <stop offset="1" stop-color="#52ce63"></stop>
        </linearGradient>
        <linearGradient id="d" x1="3027.09" x2="2540.32" y1="1163.56" y2="6509" gradientUnits="userSpaceOnUse">
          <stop stop-color="#ffe56c"></stop>
          <stop offset="1" stop-color="#ffc63a"></stop>
        </linearGradient>
      </defs>
  </symbol>
  <symbol id="icon-lighthouse" viewBox="0 0 120 120">
      <path fill="#0535c1" d="M48 95c25.9574 0 47-21.0426 47-47S73.9574 1 48 1 1 22.0426 1 48s21.0426 47 47 47Z"></path>
      <mask id="a" width="26" height="18" x="59" y="28" maskUnits="userSpaceOnUse" style="mask-type:luminance">
        <path fill="#ffffff" d="M78.9763 33.9354h-2.812c-1.1921-3.3727-4.4038-5.7857-8.1819-5.7857-4.7908 0-8.6787 3.8879-8.6787 8.6786 0 4.7908 3.8879 8.6795 8.6787 8.6795h10.9939c3.1952-.0013 5.7849-2.5914 5.7858-5.7866-.0013-3.1948-2.591-5.7844-5.7858-5.7858Z"></path>
      </mask>
      <g mask="url(#a)">
        <path fill="#eaeaea" d="M78.9763 33.9354h-2.812c-1.1921-3.3727-4.4038-5.7857-8.1819-5.7857-4.7908 0-8.6787 3.8879-8.6787 8.6786 0 4.7908 3.8879 8.6795 8.6787 8.6795h10.9939c3.1952-.0013 5.7849-2.5914 5.7858-5.7866-.0013-3.1948-2.591-5.7844-5.7858-5.7858Z"></path>
        <path fill="#ffffff" fill-opacity=".2" d="M84.7615 39.7909v-.0697c-.0013-3.1948-2.5909-5.7844-5.7858-5.7858H76.082v.1442h2.8937c3.1665.0006 5.7446 2.5459 5.7858 5.7121v-.0008Z"></path>
        <path fill="url(#b)" d="M87.7415 45.5078H67.9824L76.17 33.9354l11.5715 11.5724Z"></path>
        <mask id="c" width="18" height="13" x="67" y="33" maskUnits="userSpaceOnUse" style="mask-type:luminance">
          <path fill="#ffffff" d="M78.9751 33.9353H67.9819v11.5716h10.9932c3.1948-.0014 5.7844-2.591 5.7857-5.7858-.0013-3.1949-2.5909-5.7845-5.7857-5.7858Z"></path>
        </mask>
        <g mask="url(#c)">
          <g filter="url(#d)">
            <path fill="#000000" d="m67.9814 28.1495 4.6923 14.8178c1.567-1.5743 3.9864-3.7437 3.9864-6.1391 0-4.7908-3.8879-8.6787-8.6787-8.6787Z"></path>
          </g>
          <path fill="#e1e1e1" d="m67.9814 28.1495 4.6923 14.8178c1.567-1.5743 3.9864-3.7437 3.9864-6.1391 0-4.7908-3.8879-8.6787-8.6787-8.6787Z"></path>
        </g>
        <path fill="#EEEEEE" d="M67.9824 45.507c4.7931 0 8.6786-3.8856 8.6786-8.6787 0-4.7931-3.8855-8.6786-8.6786-8.6786-4.7931 0-8.6787 3.8855-8.6787 8.6786 0 4.7931 3.8856 8.6787 8.6787 8.6787Z"></path>
        <path fill="#ffffff" fill-opacity=".2" d="M67.9824 28.294c4.7675 0 8.6386 3.8478 8.6794 8.6098v-.0689c0-4.7908-3.8887-8.6795-8.6794-8.6795-4.7908 0-8.6787 3.8823-8.6787 8.673v.0697c.0401-4.7563 3.9111-8.6041 8.6787-8.6041Z"></path>
        <path fill="#212121" fill-opacity=".1" d="M78.9763 45.3627H67.9824c-4.7668 0-8.6378-3.8478-8.6787-8.6089v.0697c0 4.7908 3.8879 8.6786 8.6787 8.6786h10.9939c3.1948-.0013 5.7845-2.5909 5.7858-5.7857v-.0689c-.0399 3.1674-2.6181 5.7145-5.7858 5.716v-.0008Z"></path>
      </g>
      <path fill="url(#e)" d="M78.9778 33.9353h-2.812c-1.1921-3.3728-4.4038-5.7858-8.182-5.7858-4.7907 0-8.6786 3.8879-8.6786 8.6787 0 4.7908 3.8879 8.6795 8.6786 8.6795h10.994c3.1951-.0014 5.7849-2.5915 5.7857-5.7866-.0013-3.1949-2.5909-5.7845-5.7857-5.7858Z"></path>
      <path fill="#fff176" d="M35.1816 20.7616h24.5683v21.3638H35.1816V20.7616Z"></path>
      <path fill="#ffffff" d="M32.5103 53.3401h29.3751v29.3751H32.5103V53.3401Z"></path>
      <path fill="#f4481e" d="M65.0901 39.9888h4.2724v8.5448H26.6357v-8.5448h4.2725V22.8974l17.0913-10.6815 17.0906 10.6815v17.0914Zm-8.5457 0V27.6337l-8.5449-5.3395-8.5456 5.3395v12.3551h17.0905Z"></path>
      <path fill="#f4481e" d="m24.7383 88.8488 7.239-48.861h32.0453l7.2382 48.861c-6.8585 3.9143-14.7985 6.1503-23.2609 6.1503-8.4623 0-16.4023-2.236-23.2616-6.1503Zm32.8296-34.1194-20.1036 6.5324-2.4435 16.4913L59.787 69.705l-2.2191-14.9764v.0008Z"></path>
      <path fill="url(#f)" d="m65.0501 48.5336 5.9724 40.3154c-6.8585 3.9143-14.7985 6.1503-23.2608 6.1503-8.4624 0-16.4024-2.236-23.2617-6.1503l5.9732-40.3154h-3.8366v-8.5448h4.2725V22.8974l17.0913-10.6815 17.0905 10.6815v17.0914h4.2725v8.5448h-4.3133Z"></path>
      <path fill="url(#g)" d="M47.9995 39.9888H30.9082V22.8974l17.0913-10.6815v27.7729Z"></path>
      <path fill="url(#h)" d="M47.9999 94.9993c-8.1564.0048-16.1734-2.1149-23.2616-6.1503l5.3555-40.3153h17.9053v46.4656h.0008Z"></path>
      <path fill="url(#i)" d="M48 39.9885H26.6362v8.5457H48v-8.5457Z"></path>
      <path fill="url(#j)" d="M48 95c25.9574 0 47-21.0426 47-47S73.9574 1 48 1 1 22.0426 1 48s21.0426 47 47 47Z"></path>
      <mask id="k" width="30" height="21" x="12" y="38" maskUnits="userSpaceOnUse" style="mask-type:luminance">
        <path fill="#ffffff" d="M35.1809 44.795h-3.2446c-1.3747-3.8919-5.08-6.6759-9.4397-6.6759-5.5278 0-10.0142 4.4864-10.0142 10.0142 0 5.5278 4.4864 10.0141 10.0142 10.0141h12.6843c3.6852 0 6.6766-2.9906 6.6766-6.6758 0-3.6852-2.9914-6.6766-6.6766-6.6766Z"></path>
      </mask>
      <g mask="url(#k)">
        <path fill="#fafafa" d="M35.1809 44.795h-3.2446c-1.3747-3.8919-5.08-6.6759-9.4397-6.6759-5.5278 0-10.0142 4.4864-10.0142 10.0142 0 5.5278 4.4864 10.0141 10.0142 10.0141h12.6843c3.6852 0 6.6766-2.9906 6.6766-6.6758 0-3.6852-2.9914-6.6766-6.6766-6.6766Z"></path>
        <path fill="#ffffff" fill-opacity=".2" d="M41.8574 51.5517v-.0801c0-3.6853-2.9914-6.6767-6.6766-6.6767h-3.3375v.1675h3.3375c3.6534.0001 6.6284 2.9362 6.6766 6.5893Z"></path>
        <path fill="url(#l)" d="M45.2952 58.1474H22.4966l9.4469-13.3525 13.3517 13.3525Z"></path>
        <mask id="m" width="20" height="15" x="22" y="44" maskUnits="userSpaceOnUse" style="mask-type:luminance">
          <path fill="#ffffff" d="M35.1804 44.7949H22.4961v13.3525h12.6843c3.6852 0 6.6766-2.9914 6.6766-6.6766 0-3.6853-2.9914-6.6759-6.6766-6.6759Z"></path>
        </mask>
        <g mask="url(#m)">
          <g filter="url(#n)">
            <path fill="#000000" d="m22.4956 38.1191 5.4141 17.0978c1.8097-1.8162 4.6001-4.3197 4.6001-7.0836 0-5.5278-4.4864-10.0142-10.0142-10.0142Z"></path>
          </g>
          <path fill="#e1e1e1" d="m22.4956 38.1191 5.4141 17.0978c1.8097-1.8162 4.6001-4.3197 4.6001-7.0836 0-5.5278-4.4864-10.0142-10.0142-10.0142Z"></path>
        </g>
        <path fill="#ffffff" d="M22.4966 58.1474c5.5306 0 10.0141-4.4835 10.0141-10.0141 0-5.5307-4.4835-10.0142-10.0141-10.0142-5.5307 0-10.0142 4.4835-10.0142 10.0142 0 5.5306 4.4835 10.0141 10.0142 10.0141Z"></path>
        <path fill="#ffffff" fill-opacity=".2" d="M22.4966 38.2857c5.5013 0 9.9677 4.4399 10.0141 9.934v-.0801c0-5.5278-4.4863-10.0141-10.0141-10.0141-5.5278 0-10.0142 4.4799-10.0142 10.0077v.0801c.0465-5.4877 4.5128-9.9276 10.0142-9.9276Z"></path>
        <path fill="#212121" fill-opacity=".1" d="M35.1809 57.9807H22.4966c-5.5014 0-9.9677-4.4399-10.0142-9.9341v.0801c0 5.5279 4.4864 10.0142 10.0142 10.0142h12.6843c3.6852 0 6.6766-2.9914 6.6766-6.6766v-.0802c-.0472 3.6524-3.0178 6.5966-6.6766 6.5966Z"></path>
      </g>
      <path fill="url(#o)" d="M35.1809 44.795h-3.2446c-1.3747-3.8919-5.08-6.6759-9.4397-6.6759-5.5278 0-10.0142 4.4864-10.0142 10.0142 0 5.5278 4.4864 10.0141 10.0142 10.0141h12.6843c3.6852 0 6.6766-2.9906 6.6766-6.6758 0-3.6852-2.9914-6.6766-6.6766-6.6766Z"></path>
      <g opacity=".1">
        <path fill="#ffffff" d="M48 1.49109c25.8766 0 46.8606 20.90951 46.9944 46.75401 0-.0801.0048-.1602.0048-.2451C94.9992 22.0433 73.9567 1 48 1S1 22.0433 1 48c0 .0801.00561.1602.00561.2451C1.1386 22.4006 22.1234 1.49109 48 1.49109Z"></path>
        <path fill="#263238" d="M94.9944 47.7542C94.8606 73.5987 73.8766 94.5082 48 94.5082S1.1386 73.5987 1.00561 47.7542c0 .0857-.00561.1658-.00561.2459 0 25.9567 21.0433 46.9992 47 46.9992s46.9992-21.0425 46.9992-46.9992c0-.0801-.0048-.1602-.0048-.2459Z"></path>
      </g>
      <path fill="url(#p)" d="M48 95c25.9574 0 47-21.0426 47-47S73.9574 1 48 1 1 22.0426 1 48s21.0426 47 47 47Z"></path>
      <defs>
        <linearGradient id="b" x1="1055.82" x2="1055.82" y1="36.551" y2="1187.99" gradientUnits="userSpaceOnUse">
          <stop stop-color="#212121" stop-opacity=".04"></stop>
          <stop offset=".66" stop-color="#212121" stop-opacity="0"></stop>
        </linearGradient>
        <linearGradient id="f" x1="1728.43" x2="5019.44" y1="1697.52" y2="7120.46" gradientUnits="userSpaceOnUse">
          <stop stop-color="#fff" stop-opacity=".1"></stop>
          <stop offset="1" stop-color="#fff" stop-opacity="0"></stop>
        </linearGradient>
        <linearGradient id="g" x1="1209.1" x2="358.426" y1="1838.45" y2="1424.33" gradientUnits="userSpaceOnUse">
          <stop stop-color="#262626" stop-opacity=".1"></stop>
          <stop offset="1" stop-color="#262626" stop-opacity="0"></stop>
        </linearGradient>
        <linearGradient id="h" x1="1479.31" x2="-911.566" y1="656.583" y2="3443.76" gradientUnits="userSpaceOnUse">
          <stop stop-color="#262626" stop-opacity=".1"></stop>
          <stop offset="1" stop-color="#262626" stop-opacity="0"></stop>
        </linearGradient>
        <linearGradient id="i" x1="48" x2="-2088.38" y1="467.272" y2="467.272" gradientUnits="userSpaceOnUse">
          <stop stop-color="#262626" stop-opacity=".1"></stop>
          <stop offset="1" stop-color="#262626" stop-opacity="0"></stop>
        </linearGradient>
        <linearGradient id="l" x1="1162.29" x2="1162.29" y1="47.813" y2="1376.37" gradientUnits="userSpaceOnUse">
          <stop stop-color="#212121" stop-opacity=".04"></stop>
          <stop offset=".66" stop-color="#212121" stop-opacity="0"></stop>
        </linearGradient>
        <radialGradient id="e" cx="0" cy="0" r="1" gradientTransform="translate(216.178 275.833) scale(2509.38)" gradientUnits="userSpaceOnUse">
          <stop stop-color="#fff" stop-opacity=".1"></stop>
          <stop offset="1" stop-color="#fff" stop-opacity="0"></stop>
        </radialGradient>
        <radialGradient id="j" cx="0" cy="0" r="1" gradientTransform="translate(1362.97 1371.9) scale(9397.46)" gradientUnits="userSpaceOnUse">
          <stop stop-color="#fff" stop-opacity=".1"></stop>
          <stop offset="1" stop-color="#fff" stop-opacity="0"></stop>
        </radialGradient>
        <radialGradient id="o" cx="0" cy="0" r="1" gradientTransform="translate(211.236 323.903) scale(2895.44)" gradientUnits="userSpaceOnUse">
          <stop stop-color="#fff" stop-opacity=".1"></stop>
          <stop offset="1" stop-color="#fff" stop-opacity="0"></stop>
        </radialGradient>
        <radialGradient id="p" cx="0" cy="0" r="1" gradientTransform="translate(1362.97 1371.9) scale(9397.46)" gradientUnits="userSpaceOnUse">
          <stop stop-color="#fff" stop-opacity=".1"></stop>
          <stop offset="1" stop-color="#fff" stop-opacity="0"></stop>
        </radialGradient>
        <filter id="d" width="16.679" height="22.818" x="63.981" y="26.149" color-interpolation-filters="sRGB" filterUnits="userSpaceOnUse">
          <feFlood flood-opacity="0" result="BackgroundImageFix"></feFlood>
          <feColorMatrix in="SourceAlpha" result="hardAlpha" values="0 0 0 0 0 0 0 0 0 0 0 0 0 0 0 0 0 0 127 0"></feColorMatrix>
          <feOffset dy="2"></feOffset>
          <feGaussianBlur stdDeviation="2"></feGaussianBlur>
          <feColorMatrix values="0 0 0 0 0 0 0 0 0 0 0 0 0 0 0 0 0 0 0.2 0"></feColorMatrix>
          <feBlend in2="BackgroundImageFix" result="effect1_dropShadow_1011_16773"></feBlend>
          <feBlend in="SourceGraphic" in2="effect1_dropShadow_1011_16773" result="shape"></feBlend>
        </filter>
        <filter id="n" width="18.014" height="25.098" x="18.496" y="36.119" color-interpolation-filters="sRGB" filterUnits="userSpaceOnUse">
          <feFlood flood-opacity="0" result="BackgroundImageFix"></feFlood>
          <feColorMatrix in="SourceAlpha" result="hardAlpha" values="0 0 0 0 0 0 0 0 0 0 0 0 0 0 0 0 0 0 127 0"></feColorMatrix>
          <feOffset dy="2"></feOffset>
          <feGaussianBlur stdDeviation="2"></feGaussianBlur>
          <feColorMatrix values="0 0 0 0 0 0 0 0 0 0 0 0 0 0 0 0 0 0 0.1 0"></feColorMatrix>
          <feBlend in2="BackgroundImageFix" result="effect1_dropShadow_1011_16773"></feBlend>
          <feBlend in="SourceGraphic" in2="effect1_dropShadow_1011_16773" result="shape"></feBlend>
        </filter>
      </defs>
  </symbol>
  <symbol id="icon-graphql" viewBox="0 0 120 120">
      <path fill="#e535ab" fill-rule="evenodd" d="m14.0078 2.94305 4.832125 2.789925c0.136075 -0.144125 0.295 -0.271375 0.4753 -0.3761 1.002175 -0.5761 2.2804 -0.23405 2.8625 0.768125 0.5761 1.002175 0.234025 2.2804 -0.76815 2.862475 -0.1789 0.102875 -0.366825 0.17645 -0.558075 0.22225v5.582c0.189175 0.0459 0.37505 0.119 0.552075 0.2208 1.008175 0.5821 1.35025 1.8603 0.76815 2.862475 -0.5761 1.002175 -1.860325 1.344225 -2.8625 0.768125 -0.199525 -0.1147 -0.372875 -0.25745 -0.518025 -0.420475L13.988525 20.99555c0.068675 0.20745 0.105825 0.429375 0.105825 0.6601 0 1.1522 -0.936175 2.09435 -2.094375 2.09435 -1.158175 0 -2.09435 -0.93615 -2.09435 -2.09435 0 -0.205875 0.029575 -0.404725 0.084725 -0.592575L5.1595 18.2739c-0.1346 0.1413 -0.291325 0.266175 -0.46875 0.369225 -1.008175 0.5761 -2.2863975 0.23405 -2.862495 -0.768125 -0.5760975 -1.002175 -0.23404 -2.280375 0.76812 -2.862475 0.1772 -0.101875 0.363025 -0.175025 0.5521 -0.2209V9.209725c-0.19125 -0.0458 -0.379175 -0.119375 -0.5581 -0.22225C1.588215 8.4114 1.246155 7.127175 1.822255 6.125c0.5760975 -1.002175 1.86032 -1.344225 2.862495 -0.768125 0.1793 0.10415 0.3375 0.2306 0.473075 0.37375L9.99125 2.93995c-0.055725 -0.188725 -0.085625 -0.3886 -0.085625 -0.5955925C9.905625 1.18616 10.8418 0.25 11.999975 0.25c1.1582 0 2.094375 0.93616 2.094375 2.0943575 0 0.2081175 -0.030225 0.4090675 -0.08655 0.5986925Zm-0.50345 0.8596L18.348 6.5992c-0.149725 0.52585 -0.094775 1.108925 0.1991 1.62015 0.29485 0.5129 0.77515 0.8529 1.308225 0.9854v5.589c-0.027175 0.006675 -0.0542 0.013875 -0.081075 0.021625L13.4481 3.8585c0.0191 -0.018275 0.03785 -0.0369 0.05625 -0.05585Zm-2.951175 0.057125L4.22715 14.81645c-0.02735 -0.00795 -0.05485 -0.015325 -0.0825 -0.02215V9.20475c0.53305 -0.1325 1.013375 -0.4725 1.308225 -0.9854 0.29445 -0.51225 0.34905 -1.0966 0.198225 -1.623275l4.842275 -2.795775c0.019525 0.020225 0.039475 0.04005 0.0598 0.059475Zm2.032 0.496375 6.3246 10.9542c-0.14155 0.13495 -0.2663 0.2922 -0.368675 0.4703 -0.101775 0.17705 -0.1749 0.3629 -0.220775 0.552075H5.679775c-0.045875 -0.189075 -0.11905 -0.3749 -0.2209 -0.552075 -0.102775 -0.176975 -0.227275 -0.33335 -0.368125 -0.467725l6.325825 -10.956275c0.185125 0.053425 0.380875 0.082075 0.5834 0.082075 0.2032 0 0.399525 -0.028825 0.5852 -0.082575Zm0.96365 15.888525 4.8122 -2.7784c-0.014425 -0.04535 -0.02735 -0.09115 -0.038675 -0.137375h-12.64525c-0.006725 0.02715 -0.01395 0.054175 -0.02175 0.08105l4.835825 2.792025c0.38075 -0.39515 0.91565 -0.6407 1.5088 -0.6407 0.61425 0 1.16605 0.263325 1.54885 0.6834Z" clip-rule="evenodd" stroke-width="0.25"></path>
  </symbol>
  <symbol id="icon-firebase" viewBox="0 0 120 120">
      <path fill="#ffc24a" d="m13.7632 76.8736.569-.7969 26.9193-51.078.0568-.5407L29.4417 2.16844c-.9941-1.867154-3.793-1.395072-4.1193.69506L13.7632 76.8736Z"></path>
      <path fill="#ffa712" d="m14.0991 76.2662.4305-.8394 26.6372-50.5429L29.3299 2.50369c-.9838-1.847591-3.482-1.3766-3.8048.69163L14.0991 76.2662Z"></path>
      <g filter="url(#a)">
        <path fill="#000000" d="m14.0991 76.2662.4305-.8394 26.6372-50.5429L29.3299 2.50369c-.9838-1.847591-3.482-1.3766-3.8048.69163L14.0991 76.2662Z"></path>
      </g>
      <path fill="#f4bd62" d="m49.9591 41.3181 8.8355-9.0489-8.838-16.872c-.839-1.5971-3.1816-1.6017-4.0117 0l-4.7218 9.0053v.767l8.736 16.1486Z"></path>
      <path fill="#ffa50e" d="m49.8016 40.9409 8.5898-8.7972-8.5898-16.3564c-.8157-1.5526-2.7972-1.7153-3.6042-.1582l-4.7469 9.1449-.1419.4675 8.493 15.6994Z"></path>
      <g filter="url(#b)">
        <path fill="#000000" d="m49.8016 40.9409 8.5898-8.7972-8.5898-16.3564c-.8157-1.5526-2.7972-1.7153-3.6042-.1582l-4.7469 9.1449-.1419.4675 8.493 15.6994Z"></path>
      </g>
      <path fill="#f6820c" d="m13.7632 76.8737.2579-.2593.9372-.381L49.404 41.9158l.4364-1.188-8.5928-16.3743-27.4844 52.5202Z"></path>
      <path fill="#fde068" d="m51.0624 94.1809 31.1741-17.3861-8.9023-54.8263c-.2785-1.7154-2.3829-2.3935-3.6107-1.1636L13.7632 76.8737l30.9953 17.3057c1.9589 1.0937 4.3445 1.0942 6.3039.0015Z"></path>
      <path fill="#fcca3f" d="m81.9567 76.649-8.8346-54.4101c-.2764-1.7023-2.0264-2.4068-3.2449-1.1861L14.1084 76.7672l30.6549 17.1344c1.944 1.0854 4.3115 1.0859 6.256.0015L81.9567 76.649Z"></path>
      <path fill="#eeab37" d="M51.0624 93.6688c-1.9594 1.0927-4.345 1.0922-6.3039-.0016L14.0128 76.6101l-.2496.2637 30.9953 17.3056c1.9589 1.0938 4.3445 1.0943 6.3039.0016l31.1741-17.3861-.0763-.4697-31.0978 17.3436Z"></path>
      <defs>
        <filter id="a" width="27.068" height="74.917" x="14.099" y="1.349" color-interpolation-filters="sRGB" filterUnits="userSpaceOnUse">
          <feFlood flood-opacity="0" result="BackgroundImageFix"></feFlood>
          <feBlend in="SourceGraphic" in2="BackgroundImageFix" result="shape"></feBlend>
          <feColorMatrix in="SourceAlpha" result="hardAlpha" values="0 0 0 0 0 0 0 0 0 0 0 0 0 0 0 0 0 0 127 0"></feColorMatrix>
          <feOffset></feOffset>
          <feGaussianBlur stdDeviation="17.5"></feGaussianBlur>
          <feComposite in2="hardAlpha" k2="-1" k3="1" operator="arithmetic"></feComposite>
          <feColorMatrix values="0 0 0 0 0 0 0 0 0 0 0 0 0 0 0 0 0 0 0.06 0"></feColorMatrix>
          <feBlend in2="shape" result="effect1_innerShadow_1011_13865"></feBlend>
        </filter>
        <filter id="b" width="18.083" height="33.402" x="41.309" y="7.539" color-interpolation-filters="sRGB" filterUnits="userSpaceOnUse">
          <feFlood flood-opacity="0" result="BackgroundImageFix"></feFlood>
          <feBlend in="SourceGraphic" in2="BackgroundImageFix" result="shape"></feBlend>
          <feColorMatrix in="SourceAlpha" result="hardAlpha" values="0 0 0 0 0 0 0 0 0 0 0 0 0 0 0 0 0 0 127 0"></feColorMatrix>
          <feOffset dx="1" dy="-9"></feOffset>
          <feGaussianBlur stdDeviation="3.5"></feGaussianBlur>
          <feComposite in2="hardAlpha" k2="-1" k3="1" operator="arithmetic"></feComposite>
          <feColorMatrix values="0 0 0 0 0 0 0 0 0 0 0 0 0 0 0 0 0 0 0.09 0"></feColorMatrix>
          <feBlend in2="shape" result="effect1_innerShadow_1011_13865"></feBlend>
        </filter>
      </defs>
  </symbol>
  <symbol id="icon-eslint" viewBox="0 0 120 120">
       <path fill="#8080f2" d="M7.4069 9.07435 11.8655 6.5002c0.111575 -0.064425 0.249125 -0.064425 0.3607 0l4.4587 2.57415c0.111475 0.06445 0.180325 0.183475 0.180325 0.312375v5.1483c0 0.1288 -0.06885 0.247925 -0.180325 0.31245L12.2262 17.421625c-0.111575 0.06445 -0.249125 0.06445 -0.3607 0L7.4069 14.847475c-0.111575 -0.06445 -0.18035 -0.183575 -0.18035 -0.31245V9.386725c0.0001 -0.1289 0.068875 -0.247925 0.18035 -0.312375Z" stroke-width="0.25"></path>
  <path fill="#4b32c3" d="M23.60465 11.53895 18.27185 2.2613275c-0.1937 -0.33545 -0.55155 -0.58289 -0.938875 -0.58289H6.667175c-0.387425 0 -0.745375 0.24744 -0.939075 0.58289L0.395285 11.518475c-0.193713 0.33555 -0.193713 0.759025 0 1.09455L5.7281 21.814625c0.1937 0.33545 0.55165 0.50695 0.939075 0.50695h10.6657c0.387325 0 0.745275 -0.16635 0.938875 -0.5019l5.332825 -9.2166c0.1939 -0.33535 0.1939 -0.728675 0.000075 -1.064125ZM19.1888 16.00025c0 0.1364 -0.0821 0.26255 -0.20035 0.33085L12.195625 20.25025c-0.11815 0.0682 -0.26615 0.0682 -0.3843 0L5.013225 16.3311c-0.118125 -0.0683 -0.2008 -0.19435 -0.2008 -0.33085V8.16185c0 -0.136475 0.081475 -0.26255 0.1997 -0.330825l6.792575 -3.919175c0.118125 -0.068275 0.26595 -0.068275 0.3841 0l6.79855 3.919175c0.11825 0.068275 0.20145 0.19435 0.20145 0.330825V16.00025Z" stroke-width="0.25"></path>
    </symbol>
    <symbol id="icon-vitest" viewBox="0 0 120 120"  width="120" height="120">
  <path fill="#fcc72b" d="M17.8854 7.781 12.267375 15.9039c-0.05955 0.086125 -0.1457 0.15065 -0.24535 0.18375 -0.09965 0.033125 -0.207375 0.0328 -0.306825 -0.00045 -0.099425 -0.033425 -0.185175 -0.098275 -0.244225 -0.18455 -0.059025 -0.086425 -0.08815 -0.18965 -0.082875 -0.293975l0.224825 -4.484675 -3.629825 -0.769825c-0.077575 -0.016425 -0.14985 -0.051675 -0.21045 -0.102575 -0.060575 -0.0509 -0.1076 -0.115925 -0.1369 -0.189275 -0.029275 -0.073375 -0.039925 -0.1528 -0.031 -0.2313 0.008925 -0.078475 0.037125 -0.1536 0.08215 -0.218675L13.305 1.4894175c0.059575 -0.0861725 0.1457 -0.1506725 0.24535 -0.18374 0.099675 -0.033065 0.2074 -0.032895 0.30685 0.0005125 0.09945 0.033395 0.1852 0.09819 0.244225 0.1845625 0.059025 0.08636 0.08815 0.18957 0.082875 0.2939775l-0.22485 4.484745 3.6298 0.769725c0.077575 0.01645 0.14985 0.051675 0.2105 0.102575 0.060625 0.050925 0.107575 0.115925 0.1368 0.1893 0.029375 0.07335 0.03995 0.1528 0.0311 0.231275 -0.008875 0.0785 -0.037175 0.15355 -0.08225 0.21865Z" stroke-width="0.25"></path>
  <path fill="#729b1b" d="M12.002175 22.7188c-0.149425 0.00015 -0.2974 -0.029075 -0.43545 -0.0863 -0.13805 -0.0572 -0.26345 -0.14115 -0.36895 -0.246875L5.88935 17.0776c-0.21235 -0.21345 -0.331375 -0.50245 -0.331 -0.803575 0.0004 -0.301125 0.1202 -0.589975 0.33315 -0.8028 0.212925 -0.212975 0.50165 -0.33285 0.802775 -0.3333 0.301175 -0.000325 0.5902 0.118625 0.803725 0.330975l4.504175 4.503675 9.812425 -9.811925c0.2139 -0.210475 0.502275 -0.327875 0.802325 -0.32665 0.3002 0.001225 0.587625 0.120975 0.799675 0.33315 0.2122 0.2122 0.332075 0.49965 0.333325 0.799725 0.001075 0.300075 -0.1163 0.5885 -0.3268 0.8024L12.8064 22.385625c-0.1055 0.105875 -0.230875 0.189675 -0.368875 0.246875 -0.138 0.057225 -0.28595 0.08645 -0.43535 0.0863Z" stroke-width="0.25"></path>
  <path fill="#729b1b" fill-opacity=".5" d="M11.997675 22.7188c0.149425 0.00015 0.297425 -0.029075 0.435475 -0.0863 0.13805 -0.0572 0.263425 -0.14115 0.36895 -0.246875L18.1105 17.0776c0.212375 -0.21345 0.33145 -0.50245 0.330975 -0.803575 -0.0003 -0.301125 -0.120175 -0.589975 -0.33315 -0.8028 -0.212975 -0.212975 -0.501675 -0.33285 -0.8028 -0.3333 -0.301125 -0.000325 -0.590125 0.118625 -0.803725 0.330975L11.997675 19.972575 2.18529 10.16065c-0.2139125 -0.210475 -0.5023225 -0.327875 -0.8023925 -0.32665 -0.300085 0.001225 -0.5875325 0.120975 -0.7997175 0.33315 -0.2121925 0.2122 -0.33194 0.49965 -0.33317 0.799725 -0.00121325 0.300075 0.11619 0.5885 0.3266475 0.8024L11.19345 22.385625c0.105525 0.105875 0.230875 0.189675 0.368875 0.246875 0.138025 0.057225 0.285975 0.08645 0.43535 0.0863Z" stroke-width="0.25"></path>

    </symbol>
  </svg>