<svg width="120" height="120" viewBox="0 0 120 120" fill="none" xmlns="http://www.w3.org/2000/svg">
<path d="M109.959 91.9688L62.1 119.062V97.9594L91.875 81.5625L109.959 91.9688ZM113.241 89.0063V32.3906L95.7281 42.5156V78.9L113.231 88.9969L113.241 89.0063ZM10.0406 91.9688L57.8531 119.044V97.9594L28.0687 81.5625L10.0406 91.9688ZM6.75937 89.0063V32.3906L24.2719 42.5156V78.9L6.75937 89.0063ZM8.81249 28.725L57.9 0.9375V21.3375L26.4469 38.6344L26.1937 38.775L8.81249 28.725ZM111.169 28.725L62.1 0.9375V21.3375L93.5531 38.625L93.8062 38.7656L111.187 28.725H111.169Z" fill="#8ED6FB"/>
<path d="M57.9 93.1594L28.4719 76.9688V44.925L57.9 61.875V93.1594ZM62.1 93.1594L91.5281 76.9875V44.925L62.1 61.875V93.1594ZM30.4687 41.25L60 24.9938L89.5312 41.25L60 58.275L30.4687 41.25Z" fill="#1C78C0"/>
</svg>
