<svg width="120" height="120" viewBox="0 0 120 120" fill="none" xmlns="http://www.w3.org/2000/svg">
<path d="M11.8763 13.1887H108.124V106.811H11.8763V13.1887Z" fill="#0C0824"/>
<path d="M11.8763 13.1888H108.124V106.811H11.8763V13.1888ZM7.5 111.188H112.5V8.8125H7.5V111.188ZM78.2887 50.8125C74.8313 50.8125 73.65 52.5638 73.65 54.0075C73.65 55.5825 74.4375 56.6775 79.0762 59.0813C85.9463 62.4075 88.0762 65.5988 88.0762 70.2825C88.0762 77.2838 82.74 81.045 75.5212 81.045C72.4232 81.1598 69.3439 80.5161 66.5513 79.17C66.2437 79.0387 66.2025 78.8212 66.2025 78.4687V72.03C66.2025 71.5912 66.42 71.46 66.7275 71.6812C69.3502 73.3678 72.4031 74.2634 75.5212 74.2612C78.9788 74.2612 80.4225 72.8175 80.4225 70.8487C80.4225 69.2737 79.4175 67.875 74.9963 65.5987C68.7825 62.625 66.2025 59.5988 66.2025 54.5738C66.2025 48.93 70.62 44.25 78.2775 44.25C80.943 44.1355 83.6046 44.5524 86.1075 45.4762C86.2516 45.5698 86.3683 45.7001 86.4454 45.8536C86.5225 46.0072 86.5573 46.1785 86.5462 46.35V52.35C86.5462 52.6988 86.3288 52.92 85.89 52.7887C83.5768 51.4571 80.9462 50.7768 78.2775 50.82L78.2887 50.8125ZM40.6613 56.0175C41.6663 56.1037 42.4538 56.1038 44.205 56.1038C49.3237 56.1038 54.135 54.3112 54.135 47.355C54.135 41.7975 50.6775 39 44.8613 39C43.11 39 41.4488 39.0863 40.6613 39.1313V56.0175ZM32.8725 32.7675C32.8725 32.46 33.4837 32.2425 33.8362 32.2425C36.6375 32.1112 40.7925 32.025 45.1237 32.025C57.2438 32.025 61.9688 38.6737 61.9688 47.1637C61.9688 58.275 53.9175 63.045 44.0325 63.045C42.3713 63.045 41.8013 62.9587 40.62 62.9587V79.7587C40.62 80.1075 40.4888 80.2838 40.095 80.2838H33.4012C33.0525 80.2838 32.8763 80.1525 32.8763 79.7587V32.7863L32.8725 32.7675Z" fill="#31C5F0"/>
</svg>
